<mxfile host="app.diagrams.net" modified="2024-02-07T02:02:05.747Z" agent="Mozilla/5.0 (Windows NT 10.0; Win64; x64) AppleWebKit/537.36 (KHTML, like Gecko) Chrome/121.0.0.0 Safari/537.36 Edg/121.0.0.0" version="23.1.1" etag="xzfMIVvfJGbtZbdCOJn8" type="github">
  <diagram name="第 1 页" id="Ukrg3hYitKO0pHj5Uya2">
    <mxGraphModel>
      <root>
        <mxCell id="0" />
        <mxCell id="1" parent="0" />
      </root>
    </mxGraphModel>
  </diagram>
</mxfile>
